<svg xmlns="http://www.w3.org/2000/svg" version="1.1" xmlns:xlink="http://www.w3.org/1999/xlink" xmlns:svgjs="http://svgjs.dev/svgjs" width="128" height="128" viewBox="0 0 128 128"><g transform="matrix(0.8046875,0,0,0.8046875,12.333870967741937,12.333870967741937)"><svg viewBox="0 0 155 155" data-background-color="#ffffff" preserveAspectRatio="xMidYMid meet" height="128" width="128" xmlns="http://www.w3.org/2000/svg" xmlns:xlink="http://www.w3.org/1999/xlink"><g id="tight-bounds" transform="matrix(1,0,0,1,0.25,0.25)"><svg viewBox="0 0 154.5 154.5" height="154.5" width="154.5"><g><svg></svg></g><g><svg viewBox="0 0 154.5 154.5" height="154.5" width="154.5"><g transform="matrix(1,0,0,1,51.913550237288135,47.74637100000001)"><svg viewBox="0 0 50.67289952542372 59.007257999999986" height="59.007257999999986" width="50.67289952542372"><g><svg viewBox="0 0 50.67289952542372 59.007257999999986" height="59.007257999999986" width="50.67289952542372"><g><svg viewBox="0 0 50.67289952542372 59.007257999999986" height="59.007257999999986" width="50.67289952542372"><g id="textblocktransform"><svg viewBox="0 0 50.67289952542372 59.007257999999986" height="59.007257999999986" width="50.67289952542372" id="textblock"><g><svg viewBox="0 0 50.67289952542372 59.007257999999986" height="59.007257999999986" width="50.67289952542372"><g transform="matrix(1,0,0,1,0,0)"><svg width="50.67289952542372" viewBox="1 -35.4 30.4 35.4" height="59.007257999999986" data-palette-color="#010c80"><path d="M31.4 0L2.55 0 1-3 16.6-25.95 2.55-25.95 2.55-35.4 31.3-35.4 31.3-29.5 18.25-9.45 19.8-9.45 31.4-10.45 31.4 0Z" opacity="1" transform="matrix(1,0,0,1,0,0)" fill="#010c80" class="wordmark-text-0" data-fill-palette-color="primary" id="text-0"></path></svg></g></svg></g></svg></g></svg></g></svg></g></svg></g><g><path d="M51.157 33.816A25.336 25.336 0 0 1 103.343 33.816L98.022 33.816A20.015 20.015 0 0 0 56.478 33.816L51.157 33.816M51.157 120.684A25.336 25.336 0 0 0 103.343 120.684L98.022 120.684A20.015 20.015 0 0 1 56.478 120.684L51.157 120.684" fill="#010c80" stroke="transparent" data-fill-palette-color="tertiary"></path></g></svg></g><defs></defs></svg><rect width="154.5" height="154.5" fill="none" stroke="none" visibility="hidden"></rect></g></svg></g></svg>