<svg xmlns="http://www.w3.org/2000/svg" version="1.1" xmlns:xlink="http://www.w3.org/1999/xlink" xmlns:svgjs="http://svgjs.dev/svgjs" width="1000" height="1000" viewBox="0 0 1000 1000"><rect width="1000" height="1000" fill="#ffffff"></rect><g transform="matrix(0.7,0,0,0.7,149.57575757575756,282.1265587044535)"><svg viewBox="0 0 396 247" data-background-color="#ffffff" preserveAspectRatio="xMidYMid meet" height="623" width="1000" xmlns="http://www.w3.org/2000/svg" xmlns:xlink="http://www.w3.org/1999/xlink"><g id="tight-bounds" transform="matrix(1,0,0,1,0.2400000000000091,-0.09999999999999432)"><svg viewBox="0 0 395.52 247.2" height="247.2" width="395.52"><g><svg></svg></g><g><svg viewBox="0 0 395.52 247.2" height="247.2" width="395.52"><g transform="matrix(1,0,0,1,75.54432,108.57331277824692)"><svg viewBox="0 0 244.43135999999998 30.05337444350616" height="30.05337444350616" width="244.43135999999998"><g><svg viewBox="0 0 244.43135999999998 30.05337444350616" height="30.05337444350616" width="244.43135999999998"><g><svg viewBox="0 0 244.43135999999998 30.05337444350616" height="30.05337444350616" width="244.43135999999998"><g><svg viewBox="0 0 244.43135999999998 30.05337444350616" height="30.05337444350616" width="244.43135999999998"><g id="textblocktransform"><svg viewBox="0 0 244.43135999999998 30.05337444350616" height="30.05337444350616" width="244.43135999999998" id="textblock"><g><svg viewBox="0 0 244.43135999999998 30.05337444350616" height="30.05337444350616" width="244.43135999999998"><g transform="matrix(1,0,0,1,0,0)"><svg width="244.43135999999998" viewBox="1 -35.900001525878906 296.0299987792969 36.400001525878906" height="30.05337444350616" data-palette-color="#010c80"><path d="M31.4 0L2.55 0 1-3 16.6-25.95 2.55-25.95 2.55-35.4 31.3-35.4 31.3-29.5 18.25-9.45 19.8-9.45 31.4-10.45 31.4 0ZM47.45 0L36.4 0 36.4-27.4 35.9-32.4 36.4-35.4 47.45-35.4 47.45 0ZM65.45 0L54.45 0 54.45-27.35 53.45-32.4 54.45-35.4 72.45-35.4Q76.5-35.4 79.4-34.1 82.3-32.8 83.84-29.93 85.4-27.05 85.4-22.35L85.4-22.35Q85.4-15.3 81.62-12.23 77.85-9.15 70.95-9.15L70.95-9.15 65.45-9.15 65.45-8.05 65.95-3.05 65.45 0ZM64.95-25.9L65.45-18.5 68.35-18.5Q70.1-18.5 71.37-18.65 72.65-18.8 73.35-19.58 74.05-20.35 74.05-22.1L74.05-22.1Q74.05-23.95 73.3-24.75 72.55-25.55 71.22-25.73 69.9-25.9 68.15-25.9L68.15-25.9 64.95-25.9ZM99.29 0L86.64 0 95.74-17.95 87.14-32.4 87.14-35.4 99.69-35.4 104.69-22.85 105.69-22.85 110.64-35.4 123.64-35.4 114.49-17.8 123.14-3 123.14 0 110.84 0 105.69-11.95 104.69-11.95 99.29 0ZM139.39 0L128.39 0 128.39-27.35 127.39-32.4 128.39-35.4 146.39-35.4Q150.44-35.4 153.34-34.1 156.24-32.8 157.79-29.93 159.34-27.05 159.34-22.35L159.34-22.35Q159.34-15.3 155.57-12.23 151.79-9.15 144.89-9.15L144.89-9.15 139.39-9.15 139.39-8.05 139.89-3.05 139.39 0ZM138.89-25.9L139.39-18.5 142.29-18.5Q144.04-18.5 145.32-18.65 146.59-18.8 147.29-19.58 147.99-20.35 147.99-22.1L147.99-22.1Q147.99-23.95 147.24-24.75 146.49-25.55 145.17-25.73 143.84-25.9 142.09-25.9L142.09-25.9 138.89-25.9ZM174.84 0L163.84 0 163.84-27.35 162.84-32.4 163.84-35.4 181.84-35.4Q185.89-35.4 188.79-34.1 191.69-32.8 193.24-29.93 194.79-27.05 194.79-22.35L194.79-22.35Q194.79-18 193.34-15.2 191.89-12.4 189.09-10.95L189.09-10.95 189.94-10.25 193.39-5.55 196.24-3 196.24 0 182.99 0 177.49-9.15 174.84-9.15 174.84-8.05 175.34-3.05 174.84 0ZM174.34-25.9L174.84-18.5 177.74-18.5Q179.49-18.5 180.76-18.65 182.04-18.8 182.74-19.58 183.44-20.35 183.44-22.1L183.44-22.1Q183.44-23.95 182.69-24.75 181.94-25.55 180.61-25.73 179.29-25.9 177.54-25.9L177.54-25.9 174.34-25.9ZM228.69 0L200.74 0 199.74-3 200.74-8 200.74-35.4 226.49-35.4 228.99-33.9 225.69-25.4 221.19-25.9 211.84-25.9 211.84-21.9 224.19-21.9 224.19-13.65 217.29-13.65 211.84-14.15 211.84-9.5 225.69-9.5 231.64-3.2 228.69 0ZM247.88 0.5L247.88 0.5Q245.13 0.5 242.46 0.03 239.78-0.45 237.73-1.2 235.68-1.95 234.78-2.7L234.78-2.7 234.78-13.15Q236.68-12.1 239.03-11.25 241.38-10.4 243.81-9.93 246.23-9.45 248.43-9.45L248.43-9.45Q251.48-9.45 251.48-10.85L251.48-10.85Q251.48-11.55 250.86-12.03 250.23-12.5 248.68-13.05 247.13-13.6 244.28-14.45L244.28-14.45Q240.98-15.5 238.66-16.65 236.33-17.8 235.11-19.6 233.88-21.4 233.88-24.4L233.88-24.4Q233.88-29.6 238.03-32.75 242.18-35.9 250.18-35.9L250.18-35.9Q251.78-35.9 253.61-35.77 255.43-35.65 256.53-35.45L256.53-35.45 262.68-31.3 260.18-23.7 247.38-26.95Q245.38-26.95 245.38-25.6L245.38-25.6Q245.38-24.55 246.66-23.88 247.93-23.2 251.28-22.05L251.28-22.05Q255.73-20.55 258.36-18.98 260.98-17.4 262.13-15.4 263.28-13.4 263.28-10.65L263.28-10.65Q263.28-5.65 259.43-2.58 255.58 0.5 247.88 0.5ZM281.63 0.5L281.63 0.5Q278.88 0.5 276.21 0.03 273.53-0.45 271.48-1.2 269.43-1.95 268.53-2.7L268.53-2.7 268.53-13.15Q270.43-12.1 272.78-11.25 275.13-10.4 277.56-9.93 279.98-9.45 282.18-9.45L282.18-9.45Q285.23-9.45 285.23-10.85L285.23-10.85Q285.23-11.55 284.61-12.03 283.98-12.5 282.43-13.05 280.88-13.6 278.03-14.45L278.03-14.45Q274.73-15.5 272.41-16.65 270.08-17.8 268.86-19.6 267.63-21.4 267.63-24.4L267.63-24.4Q267.63-29.6 271.78-32.75 275.93-35.9 283.93-35.9L283.93-35.9Q285.53-35.9 287.36-35.77 289.18-35.65 290.28-35.45L290.28-35.45 296.43-31.3 293.93-23.7 281.13-26.95Q279.13-26.95 279.13-25.6L279.13-25.6Q279.13-24.55 280.41-23.88 281.68-23.2 285.03-22.05L285.03-22.05Q289.48-20.55 292.11-18.98 294.73-17.4 295.88-15.4 297.03-13.4 297.03-10.65L297.03-10.65Q297.03-5.65 293.18-2.58 289.33 0.5 281.63 0.5Z" opacity="1" transform="matrix(1,0,0,1,0,0)" fill="#010c80" class="wordmark-text-0" data-fill-palette-color="primary" id="text-0"></path></svg></g></svg></g></svg></g></svg></g></svg></g></svg></g></svg></g><g><path d="M245.816 0c68.262 0 123.6 55.338 123.6 123.6 0 68.262-55.338 123.6-123.6 123.6-61.949 0-113.254-45.575-122.214-105.026h1.371c8.948 58.699 59.644 103.671 120.843 103.671 67.514 0 122.245-54.731 122.245-122.245 0-67.514-54.731-122.245-122.245-122.245-61.199 0-111.895 44.972-120.843 103.671l-1.371 0c8.96-59.451 60.264-105.026 122.214-105.026z" fill="#010c80" stroke="transparent" data-fill-palette-color="tertiary"></path></g></svg></g><defs></defs></svg><rect width="395.52" height="247.2" fill="none" stroke="none" visibility="hidden"></rect></g></svg></g></svg>